<svg width="24" height="24" xmlns="http://www.w3.org/2000/svg"><g fill="none"><path d="M8.316 6.345V7.9c0 .377-.079.605-.238.683l-3.765 1.861 3.765 1.861c.158.063.238.291.238.683v1.531c0 .345-.1.463-.3.353l-4.678-2.85C3.113 11.881 3 11.567 3 11.08V9.808c0-.487.113-.801.338-.942l4.678-2.85c.2-.141.3-.031.3.33zm2.414 11.801h-.963c-.2 0-.267-.165-.2-.495.267-1.288.742-3.643 1.426-7.067a1798.34 1798.34 0 0 1 1.426-7.09c.075-.33.188-.495.338-.495h.963c.2 0 .267.165.2.495l-2.852 14.157c-.067.33-.179.495-.338.495zm4.453-10.247V6.344c0-.361.1-.471.3-.33l4.678 2.85c.225.141.338.455.338.942v1.272c0 .487-.113.801-.338.942l-4.678 2.85c-.2.11-.3-.008-.3-.353v-1.531c0-.393.079-.62.238-.683l3.765-1.861-3.765-1.861c-.158-.079-.238-.306-.238-.683z" fill="#8B8AAF"/><path d="M0 0h24v24H0z"/></g></svg>