<svg width="36" height="36" xmlns="http://www.w3.org/2000/svg"><g fill="none"><path d="M35.286 23.003c-2.763 9.547-12.742 15.046-22.289 12.283S-2.049 22.543.715 12.997C3.478 3.45 13.457-2.049 23.004.714S38.05 13.457 35.286 23.003z" fill="#494976"/><path d="M24.776 10h-11.52a2.257 2.257 0 0 0-2.257 2.256v11.52a2.257 2.257 0 0 0 2.257 2.257h11.52a2.258 2.258 0 0 0 2.257-2.257v-11.52A2.256 2.256 0 0 0 24.776 10zm-8.431 12.811l-.081.182-.181.081h-1.854l-.181-.081-.081-.182v-6.507l.081-.181.181-.081h1.854l.181.081.081.181v6.507zm-.302-7.877a1.206 1.206 0 0 1-.887.363c-.349 0-.645-.121-.886-.363a1.205 1.205 0 0 1-.363-.886c0-.336.121-.625.363-.867.255-.255.551-.383.886-.383.336 0 .631.128.887.383.242.242.363.531.363.867 0 .349-.121.645-.363.886zm8.18 7.877a.252.252 0 0 1-.081.182.25.25 0 0 1-.181.081h-1.894l-.181-.081-.081-.182v-3.969c0-.336-.06-.598-.181-.786-.148-.161-.39-.242-.725-.242-.43 0-.739.127-.927.383-.175.255-.262.618-.262 1.088v3.525a.252.252 0 0 1-.081.182.25.25 0 0 1-.181.081h-1.854l-.181-.081-.081-.182v-6.507l.081-.181.181-.081h1.793l.161.04.081.141v.101l.02.041v.161c.443-.43 1.054-.645 1.833-.645.873 0 1.545.208 2.015.625.484.443.725 1.081.725 1.914v4.392z" fill="#fff"/></g></svg>