<svg width="36" height="36" xmlns="http://www.w3.org/2000/svg"><g fill="none"><path d="M35.286 23.003c-2.763 9.547-12.742 15.046-22.289 12.283S-2.049 22.543.715 12.997C3.478 3.45 13.457-2.049 23.004.714S38.05 13.457 35.286 23.003z" fill="#494976"/><path d="M23.776 11h-11.52a2.257 2.257 0 0 0-2.257 2.257v11.52a2.256 2.256 0 0 0 2.257 2.257h5.243v-5.852h-1.982v-2.283h1.982v-1.681c0-.954.263-1.693.79-2.22.527-.527 1.242-.791 2.145-.791s1.489.034 1.756.101v2.032h-1.204c-.435 0-.732.092-.891.276-.159.184-.238.46-.238.828v1.455h2.258l-.301 2.283h-1.957v5.852h3.918a2.257 2.257 0 0 0 2.257-2.257v-11.52A2.256 2.256 0 0 0 23.775 11z" fill="#fff"/></g></svg>