<svg width="36" height="36" xmlns="http://www.w3.org/2000/svg"><g fill="none"><path d="M35.286 23.003c-2.763 9.547-12.742 15.046-22.289 12.283S-2.049 22.543.715 12.997C3.478 3.45 13.457-2.049 23.004.714S38.05 13.457 35.286 23.003z" fill="#494976"/><path d="M23.06 13.849a.928.928 0 0 1-1.58.653.923.923 0 0 1 .654-1.577c.511 0 .925.413.926.923zm2.94 4.17v.012l-.053 3.348a4.626 4.626 0 0 1-4.579 4.568L18 26h-.012l-3.356-.052a4.626 4.626 0 0 1-4.579-4.568L10 18.02v-.012l.052-3.349a4.626 4.626 0 0 1 4.579-4.568l3.368-.053h.012l3.356.052a4.626 4.626 0 0 1 4.579 4.568l.053 3.36zm-1.49 0l-.052-3.337a3.146 3.146 0 0 0-3.113-3.106L18 11.524l-3.345.052a3.145 3.145 0 0 0-3.113 3.106l-.052 3.337.052 3.337a3.146 3.146 0 0 0 3.113 3.106l3.345.052 3.345-.052a3.145 3.145 0 0 0 3.113-3.106l.052-3.337zm-2.402 0a4.097 4.097 0 0 1-2.536 3.786 4.116 4.116 0 0 1-4.477-.888 4.092 4.092 0 0 1-.891-4.466A4.11 4.11 0 0 1 18 13.921a4.108 4.108 0 0 1 4.108 4.098zm-1.49 0a2.611 2.611 0 0 0-1.616-2.413 2.625 2.625 0 0 0-2.854.566 2.608 2.608 0 0 0-.568 2.847 2.619 2.619 0 0 0 5.037-.999z" fill="#fff"/></g></svg>