<svg width="59" height="23" xmlns="http://www.w3.org/2000/svg"><path d="M4.695 3.021V14.11H3.011v2.284h5.511V14.11H6.847V3.021H4.695v.949-.949zm48.532 0l-2.772 2.767H56l-2.773-2.767zM30.46 3v2.335a6.185 6.185 0 0 1 5.197 6.11c0 3.089-2.245 5.615-5.197 6.096v2.355c4.219-.505 7.509-4.108 7.509-8.451 0-4.34-3.291-7.941-7.509-8.445zm-1.953.063c-4.215.506-7.505 4.107-7.505 8.447 0 4.34 3.291 7.942 7.505 8.446v-2.33a6.194 6.194 0 0 1-5.199-6.116c0-3.09 2.249-5.611 5.199-6.093V3.064zM14.96 6.473c-2.334 0-4.264 1.897-4.264 4.227v5.692h2.182V10.7c0-1.162.918-2.078 2.083-2.078 1.162 0 2.081.917 2.081 2.078v5.692h2.162V10.7c0-2.329-1.907-4.227-4.242-4.227zm24.836.046v5.689c0 2.334 1.909 4.229 4.243 4.229 2.337 0 4.266-1.896 4.266-4.229V6.519h-2.183v5.689a2.06 2.06 0 0 1-2.082 2.077 2.062 2.062 0 0 1-2.08-2.077V6.519h-2.163zm10.679.008V8.8h1.675v11.09h2.154V8.8h1.683V6.527h-5.511zM3 17.122l2.773 2.768 2.769-2.768H3.001z" fill="#00FFC2"/></svg>