<svg width="162" height="64" xmlns="http://www.w3.org/2000/svg"><path d="M13.565 9.056v29.865H9.029v6.152h14.843v-6.152h-4.511V9.056h-5.797v2.556-2.556zm130.706 0l-7.466 7.451h14.933l-7.467-7.451zM82.954 9v6.287c7.951 1.304 13.997 8.134 13.997 16.456 0 8.319-6.046 15.122-13.997 16.417v6.344c11.362-1.359 20.224-11.063 20.224-22.76 0-11.687-8.862-21.386-20.224-22.744zm-5.259.169c-11.351 1.362-20.213 11.062-20.213 22.748 0 11.687 8.862 21.39 20.213 22.746v-6.275c-7.943-1.3-14.001-8.145-14.001-16.471 0-8.322 6.058-15.111 14.001-16.411V9.169zM41.21 18.354c-6.285 0-11.485 5.109-11.485 11.383v15.329h5.876V29.737c0-3.128 2.472-5.597 5.609-5.597 3.128 0 5.603 2.468 5.603 5.597v15.329h5.822V29.737c0-6.273-5.136-11.383-11.425-11.383zm66.888.123v15.321c0 6.287 5.142 11.39 11.427 11.39 6.295 0 11.488-5.106 11.488-11.39V18.477h-5.88v15.321c0 3.131-2.469 5.595-5.608 5.595-3.132 0-5.601-2.472-5.601-5.595V18.477h-5.826zm28.761.022v6.121h4.51v29.868h5.8V24.62h4.534v-6.121H136.86zM9 47.034l7.468 7.454 7.456-7.454H9z" fill="#00FFC2"/></svg>