<svg xmlns="http://www.w3.org/2000/svg" width="115" height="115"><style>.st10{fill:#3a3a62}</style><linearGradient id="SVGID_1_" gradientUnits="userSpaceOnUse" x1="-800.389" y1="-2069.546" x2="-734.517" y2="-2069.546" gradientTransform="scale(-1 1) rotate(-15 7710.562 -3722.43)"><stop offset="0" stop-color="#38FFBF" stop-opacity="0"/><stop offset=".684" stop-color="#35FFBE" stop-opacity=".684"/><stop offset="1" stop-color="#30FFBD"/></linearGradient><circle cx="50.7" cy="70.3" r="32.9" opacity=".58" fill="url(#SVGID_1_)"/><linearGradient id="SVGID_2_" gradientUnits="userSpaceOnUse" x1="48.392" y1="90.6" x2="50.406" y2="23.112" gradientTransform="matrix(1 0 0 -1 0 116)"><stop offset="0" stop-color="#38FFBF" stop-opacity="0"/><stop offset=".684" stop-color="#35FFBE" stop-opacity=".684"/><stop offset="1" stop-color="#30FFBD"/></linearGradient><path d="M68 80.2l-37.8 4.7V13.5H68z" fill="url(#SVGID_2_)"/><linearGradient id="SVGID_3_" gradientUnits="userSpaceOnUse" x1="49.064" y1="27.092" x2="49.408" y2="66.138" gradientTransform="matrix(1 0 0 -1 0 116)"><stop offset="0" stop-color="#388EBF"/><stop offset="1" stop-color="#30F2BB"/></linearGradient><path d="M68 84.7c0 .8-.5 1.5-1.2 1.8-4.5 2.1-10.8 3.4-17.7 3.4s-13.2-1.3-17.7-3.4c-.7-.3-1.2-1-1.2-1.8.1-19 3.6-35.6 18.9-35.6 15.3 0 18.8 16.6 18.9 35.6z" fill="url(#SVGID_3_)"/><linearGradient id="SVGID_4_" gradientUnits="userSpaceOnUse" x1="27.191" y1="21.125" x2="71.011" y2="21.125" gradientTransform="matrix(1 0 0 -1 0 116)"><stop offset="0" stop-color="#388EBF"/><stop offset="1" stop-color="#30F2BB"/></linearGradient><path d="M56.1 87.7v-4.8h-14v4.8c0 1.3-.8 2.4-2 2.8l-9.5 3.2c-2 .7-3.4 2.6-3.4 4.7v6.4c0 1.1.9 2 2 2H69c1.1 0 2-.9 2-2v-6.4c0-2.1-1.4-4-3.4-4.7l-9.5-3.2c-1.2-.3-2-1.5-2-2.8z" fill="url(#SVGID_4_)"/><linearGradient id="SVGID_5_" gradientUnits="userSpaceOnUse" x1="48.868" y1="24.743" x2="49.274" y2="6.7" gradientTransform="matrix(1 0 0 -1 0 116)"><stop offset="0" stop-color="#388EBF"/><stop offset="1" stop-color="#30F2BB"/></linearGradient><path d="M67.6 93.7l-7.8-2.6c-3.7 5-8 7.8-10.8 8.7-2.8-.9-7.1-3.7-10.8-8.7l-7.8 2.6c-2 .7-3.4 2.6-3.4 4.7v6.4c0 1.1.9 2 2 2h40c1.1 0 2-.9 2-2v-6.4c0-2.1-1.4-4-3.4-4.7z" fill="url(#SVGID_5_)"/><linearGradient id="SVGID_6_" gradientUnits="userSpaceOnUse" x1="50.79" y1="55.837" x2="50.618" y2="29.357" gradientTransform="matrix(1 0 0 -1 0 116)"><stop offset="0" stop-color="#388EBF"/><stop offset="1" stop-color="#30F2BB"/></linearGradient><path d="M50.7 87.9c-6.2 0-11.3-5.1-11.3-11.3V61H62v15.6c0 6.2-5 11.3-11.3 11.3z" fill="url(#SVGID_6_)"/><linearGradient id="SVGID_7_" gradientUnits="userSpaceOnUse" x1="30.675" y1="9.665" x2="31.993" y2="19.801" gradientTransform="matrix(1 0 0 -1 0 116)"><stop offset="0" stop-color="#388EBF"/><stop offset="1" stop-color="#30F2BB"/></linearGradient><path d="M34 100.7l-5.5-5.5c-.8.9-1.3 2.1-1.3 3.3v6.4c0 1.1.9 2 2 2h6v-3.3c0-1.2-.5-2.2-1.2-2.9z" fill="url(#SVGID_7_)"/><linearGradient id="SVGID_8_" gradientUnits="userSpaceOnUse" x1="66.139" y1="5.055" x2="67.456" y2="15.191" gradientTransform="matrix(1 0 0 -1 0 116)"><stop offset="0" stop-color="#388EBF"/><stop offset="1" stop-color="#30F2BB"/></linearGradient><path d="M64.2 100.7l5.5-5.5c.8.9 1.3 2.1 1.3 3.3v6.4c0 1.1-.9 2-2 2h-6v-3.3c0-1.2.5-2.2 1.2-2.9z" fill="url(#SVGID_8_)"/><linearGradient id="SVGID_9_" gradientUnits="userSpaceOnUse" x1="62.828" y1="19.597" x2="36.777" y2="19.395" gradientTransform="matrix(1 0 0 -1 0 116)"><stop offset="0" stop-color="#388EBF"/><stop offset="1" stop-color="#30F2BB"/></linearGradient><path d="M36.7 92.3c4 5.4 8.7 8.4 11.7 9.4l.6.2.6-.2c3.1-1 7.7-4 11.7-9.4l.4-.5-2-.7c-3.7 5-8 7.8-10.8 8.7-2.8-.9-7.1-3.7-10.8-8.7l-2 .7.6.5z" fill="url(#SVGID_9_)"/><linearGradient id="SVGID_10_" gradientUnits="userSpaceOnUse" x1="48.879" y1="27.093" x2="49.223" y2="66.14" gradientTransform="matrix(1 0 0 -1 0 116)"><stop offset="0" stop-color="#388EBF"/><stop offset="1" stop-color="#30F2BB"/></linearGradient><path d="M35.2 60v7C47 67 56 62.9 57.5 62c1.6 4 4.5 5 4.5 5h1v-7H35.2z" fill="url(#SVGID_10_)"/><ellipse transform="rotate(-77.06 48.677 71.306)" class="st10" cx="48.7" cy="71.3" rx="1.1" ry="1.1"/><ellipse transform="rotate(-77.06 58.168 71.208)" class="st10" cx="58.2" cy="71.2" rx="1.1" ry="1.1"/><linearGradient id="SVGID_11_" gradientUnits="userSpaceOnUse" x1="81.48" y1="96.889" x2="81.48" y2="50.45" gradientTransform="matrix(1 0 0 -1 0 116)"><stop offset="0" stop-color="#38FFBF" stop-opacity="0"/><stop offset=".684" stop-color="#35FFBE" stop-opacity=".684"/><stop offset="1" stop-color="#30FFBD"/></linearGradient><path d="M93.3 41.6H69.6c-.9 0-1.6.7-1.6 1.6v17.3c0 .9.7 1.6 1.6 1.6h4.9v3.5l4.5-3.5h14.2c.9 0 1.6-.7 1.6-1.6V43.3c.1-.9-.6-1.7-1.5-1.7z" fill="url(#SVGID_11_)"/><linearGradient id="SVGID_12_" gradientUnits="userSpaceOnUse" x1="75.954" y1="70.964" x2="76.079" y2="65.777" gradientTransform="matrix(1 0 0 -1 0 116)"><stop offset="0" stop-color="#38FFBF" stop-opacity="0"/><stop offset=".684" stop-color="#35FFBE" stop-opacity=".684"/><stop offset="1" stop-color="#30FFBD"/></linearGradient><path d="M78.9 51.1h-1c0-1-.8-1.8-1.8-1.8s-1.8.8-1.8 1.8h-1c0-1.5 1.2-2.8 2.8-2.8s2.8 1.3 2.8 2.8z" fill="url(#SVGID_12_)"/><linearGradient id="SVGID_13_" gradientUnits="userSpaceOnUse" x1="87.361" y1="71.239" x2="87.486" y2="66.052" gradientTransform="matrix(1 0 0 -1 0 116)"><stop offset="0" stop-color="#38FFBF" stop-opacity="0"/><stop offset=".684" stop-color="#35FFBE" stop-opacity=".684"/><stop offset="1" stop-color="#30FFBD"/></linearGradient><path d="M90.3 51.1h-1c0-1-.8-1.8-1.8-1.8s-1.8.8-1.8 1.8h-1c0-1.5 1.2-2.8 2.8-2.8s2.8 1.3 2.8 2.8z" fill="url(#SVGID_13_)"/><linearGradient id="SVGID_14_" gradientUnits="userSpaceOnUse" x1="82.078" y1="62.436" x2="82.191" y2="57.729" gradientTransform="matrix(1 0 0 -1 0 116)"><stop offset="0" stop-color="#38FFBF" stop-opacity="0"/><stop offset=".684" stop-color="#35FFBE" stop-opacity=".684"/><stop offset="1" stop-color="#30FFBD"/></linearGradient><path d="M82.1 58.3c-1.9 0-3.5-1.6-3.5-3.5v-1.2h6.9v1.2c.1 1.9-1.5 3.5-3.4 3.5z" fill="url(#SVGID_14_)"/><linearGradient id="SVGID_15_" gradientUnits="userSpaceOnUse" x1="-468.217" y1="6083.81" x2="-435.761" y2="6083.81" gradientTransform="scale(1 -1) rotate(-15 -23615.236 981.698)"><stop offset="0" stop-color="#38FFBF" stop-opacity="0"/><stop offset=".684" stop-color="#35FFBE" stop-opacity=".684"/><stop offset="1" stop-color="#30FFBD"/></linearGradient><circle cx="81" cy="89.9" r="16.2" opacity=".39" fill="url(#SVGID_15_)"/><path d="M32.1 32.1h-.7c-.2 0-.3-.2-.3-.3v-.6c0-.2.2-.3.3-.3h.7c.2 0 .3.2.3.3v.6c0 .1-.1.3-.3.3zm0 5.2h-.7c-.2 0-.3-.2-.3-.3v-.6c0-.2.2-.3.3-.3h.7c.2 0 .3.2.3.3v.6c0 .2-.1.3-.3.3zm0 5.2h-.7c-.2 0-.3-.2-.3-.3v-.6c0-.2.2-.3.3-.3h.7c.2 0 .3.2.3.3v.6c0 .2-.1.3-.3.3zm0 4.7h-.7c-.2 0-.3-.2-.3-.3v-.6c0-.2.2-.3.3-.3h.7c.2 0 .3.2.3.3v.6c0 .2-.1.3-.3.3zm0 4.6h-.7c-.2 0-.3-.2-.3-.3v-.6c0-.2.2-.3.3-.3h.7c.2 0 .3.2.3.3v.6c0 .1-.1.3-.3.3zm0 5.2h-.7c-.2 0-.3-.2-.3-.3v-.6c0-.2.2-.3.3-.3h.7c.2 0 .3.2.3.3v.6c0 .2-.1.3-.3.3zm0 5.2h-.7c-.2 0-.3-.2-.3-.3v-.6c0-.2.2-.3.3-.3h.7c.2 0 .3.2.3.3v.6c0 .1-.1.3-.3.3zm-6-30.1h-.7c-.2 0-.3-.2-.3-.3v-.6c0-.2.2-.3.3-.3h.7c.2 0 .3.2.3.3v.6c0 .1-.1.3-.3.3zm0 5.2h-.7c-.2 0-.3-.2-.3-.3v-.6c0-.2.2-.3.3-.3h.7c.2 0 .3.2.3.3v.6c0 .2-.1.3-.3.3zm0 5.2h-.7c-.2 0-.3-.2-.3-.3v-.6c0-.2.2-.3.3-.3h.7c.2 0 .3.2.3.3v.6c0 .2-.1.3-.3.3zm0 4.7h-.7c-.2 0-.3-.2-.3-.3v-.6c0-.2.2-.3.3-.3h.7c.2 0 .3.2.3.3v.6c0 .2-.1.3-.3.3zm0 4.6h-.7c-.2 0-.3-.2-.3-.3v-.6c0-.2.2-.3.3-.3h.7c.2 0 .3.2.3.3v.6c0 .1-.1.3-.3.3zm0 5.2h-.7c-.2 0-.3-.2-.3-.3v-.6c0-.2.2-.3.3-.3h.7c.2 0 .3.2.3.3v.6c0 .2-.1.3-.3.3zm0 5.2h-.7c-.2 0-.3-.2-.3-.3v-.6c0-.2.2-.3.3-.3h.7c.2 0 .3.2.3.3v.6c0 .1-.1.3-.3.3zm0 4.7h-.7c-.2 0-.3-.2-.3-.3V66c0-.2.2-.3.3-.3h.7c.2 0 .3.2.3.3v.6c0 .2-.1.3-.3.3z" fill="#00ffc2"/></svg>