<svg width="113" height="51" xmlns="http://www.w3.org/2000/svg"><path d="M66.578 22.265a10.33 10.33 0 0 1 .862 4.168c0 1.458-.287 2.858-.862 4.201a10.827 10.827 0 0 1-2.346 3.414l-.137.137a11.6 11.6 0 0 1-3.313 2.152 10.747 10.747 0 0 1-4.275.854c-.3 0-.585-.011-.862-.032a10.413 10.413 0 0 1-3.346-.822 11.002 11.002 0 0 1-3.311-2.152l-.137-.137a10.756 10.756 0 0 1-2.344-3.414 10.551 10.551 0 0 1-.862-4.201c0-1.435.286-2.824.862-4.168a10.797 10.797 0 0 1 2.344-3.416 10.482 10.482 0 0 1 3.448-2.322 10.617 10.617 0 0 1 4.208-.854c1.493 0 2.919.285 4.276.854a10.95 10.95 0 0 1 3.449 2.322 10.803 10.803 0 0 1 2.346 3.416zm-1.656 4.168a7.766 7.766 0 0 0-.69-3.211 8.032 8.032 0 0 0-1.793-2.664 8.33 8.33 0 0 0-2.69-1.776 8.298 8.298 0 0 0-3.242-.65 8.142 8.142 0 0 0-3.242.65 8.428 8.428 0 0 0-2.655 1.776 8.058 8.058 0 0 0-1.795 2.664 8.503 8.503 0 0 0-.619 3.211c0 1.138.206 2.22.619 3.244a7.755 7.755 0 0 0 1.795 2.596 7.733 7.733 0 0 0 2.655 1.776l.344.137a8.21 8.21 0 0 0 2.898.515c1.011 0 1.977-.17 2.896-.515l.346-.137a7.647 7.647 0 0 0 2.69-1.776 7.75 7.75 0 0 0 1.793-2.596 7.846 7.846 0 0 0 .69-3.244zm-46.17-2.345a9.175 9.175 0 0 0-1.133-2.352 8.179 8.179 0 0 0-1.718-1.811 7.94 7.94 0 0 0-2.266-1.231 8.465 8.465 0 0 0-2.595-.397c-.975 0-1.914.132-2.814.397a9.108 9.108 0 0 0-2.304 1.196 7.984 7.984 0 0 0-1.789 1.846 8.242 8.242 0 0 0-1.096 2.352h15.716zm2.227-1.7c.585 1.398.878 2.847.878 4.342H2.706a7.242 7.242 0 0 0 .695 2.933 8.653 8.653 0 0 0 1.717 2.498 8.904 8.904 0 0 0 2.777 1.774l.184.072a8 8 0 0 0 2.885.543c.928 0 1.866-.179 2.816-.543l.328-.144c1.073-.436 2.071-1.099 2.997-1.99l1.827 1.918-.22.216a11.968 11.968 0 0 1-3.581 2.354 11.277 11.277 0 0 1-3.254.796 11.564 11.564 0 0 1-1.826 0 11.507 11.507 0 0 1-3.18-.724 10.888 10.888 0 0 1-3.653-2.354l-.074-.072a10.835 10.835 0 0 1-2.229-3.365A10.47 10.47 0 0 1 0 26.37c0-1.474.282-2.872.842-4.2a11.453 11.453 0 0 1 2.376-3.404 10.84 10.84 0 0 1 3.508-2.28 11.336 11.336 0 0 1 4.313-.833c1.461 0 2.862.29 4.203.869a10.716 10.716 0 0 1 3.435 2.352 11.137 11.137 0 0 1 2.302 3.513zm83.979-15.82h4.714v26.207c0 .364.195.543.585.543h1.389c.342 0 .646.144.913.437.293.286.44.601.44.94 0 .843-.452 1.266-1.353 1.266h-6.688c-.83 0-1.243-.423-1.243-1.266 0-.339.133-.653.403-.94.245-.293.525-.437.841-.437h1.316c.488 0 .729-.179.729-.543V9.791c0-.364-.241-.544-.729-.544h-1.316c-.316 0-.596-.146-.841-.434a1.275 1.275 0 0 1-.403-.941V7.8c.025-.314.158-.602.403-.869.245-.241.525-.362.841-.362zm-33.371 0h2.669v9.049h3.91c.365 0 .683.121.949.364.27.288.403.615.403.977 0 .337-.133.639-.403.905a1.365 1.365 0 0 1-.949.364h-3.18c-.488 0-.731.216-.731.65v9.593c0 .652.135 1.279.401 1.883a4.982 4.982 0 0 0 1.17 1.556 4.613 4.613 0 0 0 1.679 1.013 5.168 5.168 0 0 0 2.011.397v2.643a7.733 7.733 0 0 1-3.033-.616 7.393 7.393 0 0 1-2.522-1.59 7.163 7.163 0 0 1-1.718-2.392 6.79 6.79 0 0 1-.658-2.895v-9.593c0-.434-.206-.65-.621-.65h-1.243c-.415 0-.755-.121-1.023-.364a1.158 1.158 0 0 1-.403-.905c0-.892.477-1.34 1.426-1.34h1.864V6.568zm20.031 11.729c-.977 0-1.915.132-2.816.397a9.017 9.017 0 0 0-2.3 1.196 8.043 8.043 0 0 0-1.793 1.846 8.356 8.356 0 0 0-1.098 2.352h15.716a9.04 9.04 0 0 0-1.131-2.352 8.152 8.152 0 0 0-1.717-1.811 7.966 7.966 0 0 0-2.266-1.231 8.475 8.475 0 0 0-2.595-.397zm-4.315-1.811a11.346 11.346 0 0 1 4.315-.833c1.461 0 2.861.29 4.201.869a10.705 10.705 0 0 1 3.435 2.352c1 1.038 1.766 2.208 2.304 3.513.583 1.398.878 2.847.878 4.342H83.283a7.244 7.244 0 0 0 .697 2.933 8.646 8.646 0 0 0 1.715 2.498 8.913 8.913 0 0 0 2.779 1.774 7.996 7.996 0 0 0 3.07.615c1.048 0 2.094-.23 3.143-.687 1.073-.436 2.071-1.099 2.999-1.99l1.827 1.918a12.187 12.187 0 0 1-3.8 2.57 10.832 10.832 0 0 1-4.168.831c-1.438 0-2.802-.251-4.093-.759a10.904 10.904 0 0 1-3.657-2.354 11.47 11.47 0 0 1-2.302-3.437 10.468 10.468 0 0 1-.913-4.272c0-1.474.28-2.872.839-4.2a11.564 11.564 0 0 1 2.376-3.404 10.859 10.859 0 0 1 3.51-2.28zm-42.28.234l.034.033c.293.3.41.729.355 1.286-.124.713-.58 1.068-1.366 1.068h-.743c-.493.023-.92.118-1.28.285a2.175 2.175 0 0 0-.759.585l-5.59 8.884c-.207.367-.199.75.027 1.15l5.361 8.675c.511.792 1.337 1.201 2.479 1.226h.607c.371 0 .713.135 1.029.4l.032.033c.293.313.44.652.44 1.02 0 .423-.158.773-.472 1.052h.032c-.337.267-.69.4-1.061.4h-3.769l-6.365-10.154c-.2-.278-.422-.278-.667 0l-5.647 9.16c-1.851 3.058-3.701 6.117-5.554 9.175h-4.384c-.899 0-1.35-.485-1.35-1.454 0-.399.145-.75.438-1.05.238-.269.541-.4.912-.4h.844l.504-.018c.704-.109 1.256-.393 1.653-.852L31.604 30.01c.227-.404.234-.789.016-1.15l-.016-.035-5.547-8.849a2.216 2.216 0 0 0-.759-.585c-.36-.17-.786-.265-1.28-.285h-.741c-.787 0-1.245-.358-1.374-1.077-.057-.548.066-.977.362-1.286l.034-.025v-.009a1.44 1.44 0 0 1 .287-.209c.296-.151.681-.235 1.155-.249h3.398l2.462 3.94a157.642 157.642 0 0 1 3.464 5.545c.41.574.798.58 1.163.016l3.573-5.71h.009l2.378-3.79h3.387c.484.011.871.093 1.163.249a.918.918 0 0 1 .287.218zm-.104-4.179l-1.828 1.556c-2.777-2.123-5.945-3.221-9.502-3.293-3.267.025-6.322 1.219-9.174 3.583l-1.756-1.737c3.705-2.849 7.518-4.15 11.442-3.91 4.019-.121 7.626 1.147 10.818 3.801zm5.957-6.189l-1.571 1.447c-4.435-3.62-9.577-5.501-15.424-5.647-5.336-.097-10.563 1.932-15.681 6.082l-1.791-1.702.732-.58c5.627-4.344 11.598-6.311 17.91-5.9 6.36.411 11.634 2.51 15.824 6.298zm-2.997 3.04l-1.681 1.519c-3.167-2.726-7.213-4.173-12.134-4.344-4.483-.144-8.722 1.424-12.719 4.707l-1.754-1.593c4.263-3.644 9.075-5.454 14.436-5.429 5.483.337 10.1 2.05 13.852 5.139z" fill="#3A3A62"/></svg>